# xmcd CD database file
#
# Track frame offsets:
#	150
#	24071
#	50198
#	75261
#	95783
#	117890
#	141500
#	169443
#	196328
#	220035
#
# Disc length: 3317 seconds
#
# Revision: 0
# Processed by: cddbd v1.5.1PL2 Copyright (c) Steve Scherf et al.
# Submitted via: CDex 1.51
#
DISCID=890cf30a
DTITLE=Denzal Sinclaire - My One And Only Love
DYEAR=2005
DGENRE=Jazz
TTITLE0=Happier Than The Morning Sun
TTITLE1=Always On My Mind
TTITLE2=Smoke Gets In Your Eyes
TTITLE3=Follow You Follow Me
TTITLE4=I Can See Clearly Now
TTITLE5=Here Comes The Honeyman
TTITLE6=Stardust
TTITLE7=Éstaté (summer)
TTITLE8=For You, For Me, For Evermore
TTITLE9=My One And Only Love
EXTD=YEAR: 2005
EXTT0=
EXTT1=
EXTT2=
EXTT3=
EXTT4=
EXTT5=
EXTT6=
EXTT7=
EXTT8=
EXTT9=
PLAYORDER=
